<?xml version="1.0" encoding="utf-8"?>
<!-- Generator: Adobe Illustrator 25.3.0, SVG Export Plug-In . SVG Version: 6.00 Build 0)  -->
<svg version="1.1" id="Layer_1" xmlns="http://www.w3.org/2000/svg" xmlns:xlink="http://www.w3.org/1999/xlink" x="0px" y="0px"
	 viewBox="0 0 256 256" style="enable-background:new 0 0 256 256;" xml:space="preserve">
<style type="text/css">
	.st0{fill:#320096;}
	.st1{fill:#FFFFFF;}
	.st2{fill:#FCCB00;}
</style>
<g>
	<circle class="st0" cx="128.2" cy="128.16" r="123.74"/>
	<g>
		<g>
			<path class="st1" d="M110.01,155.76c-7.93,2.44-14.74,2.84-17.74,2.24c-1.41-8.63,0.65-28.81,2.64-40.55l-14.86-2.52l-14.86-2.51
				c-1.05,6.22-6.09,38.11-1.78,54.65c1.92,7.37,6.46,13.23,13.12,16.93c3.57,1.98,9.85,4.38,19.4,4.38c5.75,0,12.7-0.87,20.94-3.24
				C112.25,176.67,110.45,166.33,110.01,155.76z M80.04,114.93l14.86,2.52c0-0.01,0-0.01,0-0.01L80.04,114.93z"/>
		</g>
		<g>
			<path class="st1" d="M78.54,105.14c-10.1,0-19.85-0.76-28.72-2.8l6.74-29.38c17.82,4.09,43.78,1.18,66.68-1.39
				c13.62-1.53,26.46-2.94,37.28-2.95l-0.06,30.14c-0.06,0-0.13,0-0.19,0c-9.04,0-21,1.34-33.66,2.76
				C111.14,103.26,94.42,105.14,78.54,105.14z"/>
		</g>
		<g>
			<path class="st1" d="M198.71,171.14c-1.31,2.9-3.06,5.57-5.2,7.95c-4.48,5.02-10.66,8.81-18.05,10.98
				c-4.53,1.33-9.23,1.98-13.9,1.98c-9.38,0-18.69-2.62-26.48-7.65c-18.32-11.86-19.87-36.55-18.73-58.64
				c0.25-4.96,0.64-9.78,1-14.3l30.04,2.43c-0.94,11.62-1.7,22.81-0.72,31.93c0.74,6.96,2.48,11.8,4.76,13.27
				c4.11,2.66,10.14,3.51,15.12,2.17c0.14-0.03,0.27-0.07,0.4-0.11c2.74-0.8,4.1-2.03,4.29-2.46c2.97-6.54,4.13-14.74,4.36-25.94
				c0.11-5.12,0.01-10.86-0.18-17.36l30.13-0.91C206.21,135.78,206.14,154.76,198.71,171.14z"/>
		</g>
		<path class="st2" d="M204.38,74.14c-5.32-7.49-14.67-10.01-22.74-6.12l0,0c-6.08,2.93-10.23,8.52-11.39,15.34
			c-0.31,1.83-1.54,11.26,4.67,17.47c3.51,3.51,8.5,5.45,14.07,5.48c0.04,0,0.07,0,0.11,0c5.58,0,10.59-1.94,14.12-5.47
			C210.58,93.47,209.59,81.48,204.38,74.14z"/>
	</g>
</g>
</svg>
